<svg width="927" height="914" viewBox="0 0 927 914" fill="none" xmlns="http://www.w3.org/2000/svg">
<path d="M1015.42 37.8914C1013.84 37.8192 1012.12 38.3072 1011.41 38.9545C1010.7 39.6019 1002.09 39.6625 992.137 39.209L974.049 38.3844L933.269 75.6089L892.37 112.941L891.715 129.791L891.06 146.641L857.018 177.715C823.802 208.034 822.975 208.789 820.817 206.425C819.091 204.534 817.832 204.817 814.522 207.838C811.921 210.211 810.677 212.647 811.294 214.034C812.008 215.766 810.43 218.073 806.411 221.742L800.619 227.029L793.606 219.346L786.593 211.662L792.385 206.375C796.403 202.707 798.844 201.345 800.504 202.214C804.158 204.08 811.173 196.81 809.303 193.099C807.844 190.314 808.8 189.225 834.923 165.379C857.145 145.095 862.022 139.993 862.018 137.613C861.864 136.02 862.774 133.456 863.858 132.033C865.061 130.502 865.744 127.927 865.375 126.098C864.928 123.472 863.936 122.86 861.095 123.071C856.197 123.64 854.568 127.078 857.697 130.506C858.992 131.924 859.88 134.797 859.669 136.94C859.397 140.439 855.83 144.128 833.016 164.953C807.721 188.043 806.549 188.895 803.908 187.189C800.383 184.989 792.505 191.314 794.03 195.122C794.744 196.854 793.167 199.161 789.148 202.829L783.356 208.116L776.342 200.433L769.329 192.75L775.121 187.463C779.14 183.794 781.581 182.433 783.241 183.301C784.566 184.042 786.987 183.132 789.587 180.759C792.07 178.493 793.195 176.165 792.697 174.67C791.885 172.594 798.644 165.991 844.034 124.559L896.516 76.6524L909.964 77.3787L923.412 78.105L943.27 59.9783C956.982 47.4623 964.27 41.6771 966.788 41.1121C969.758 40.5678 970.585 39.8126 970.622 36.5289C970.787 32.9113 970.571 32.6749 966.953 32.51C964.014 32.376 963.197 32.9052 962.986 35.048C962.903 36.8568 956.834 43.264 942.649 56.2116L922.436 74.662L908.988 73.9357L895.541 73.2094L841.994 122.087C799.795 160.606 788.242 170.502 787.508 169.222C786.655 168.05 784.46 168.97 781.053 171.647C777.764 174.216 776.078 176.404 776.726 177.114C777.373 177.823 775.312 180.788 772.002 183.809L766.092 189.204L759.079 181.52L752.065 173.837L757.385 168.982C761.049 165.637 763.48 164.502 765.031 165.252C766.583 166.002 769.014 164.867 771.969 162.17C775.279 159.149 776.148 157.489 774.961 156.189C773.666 154.77 775.233 152.689 783.153 145.46L792.964 136.505L805.281 137.179L817.599 137.854L846.086 111.851L874.455 85.9557L875.949 53.1711L877.444 20.3864L895.529 3.87816C907.704 -7.23524 914.755 -12.8047 917.155 -13.2617C920.125 -13.806 920.953 -14.5613 920.989 -17.8449C921.154 -21.4625 920.938 -21.6989 917.32 -21.8638C914.381 -21.9978 913.564 -21.4686 913.353 -19.3258C913.271 -17.517 907.319 -11.2178 893.608 1.29831L874.104 19.1013L872.609 51.886L871.115 84.6706L843.928 109.487L816.859 134.195L803.853 133.716L791.073 133.246L781.499 141.986C774.525 148.352 771.256 150.469 769.705 149.718C767.377 148.593 757.952 156.546 759.57 158.319C760.217 159.028 758.048 161.875 754.739 164.896L748.829 170.291L741.815 162.608L734.802 154.924L740.121 150.069C743.785 146.724 746.216 145.589 747.768 146.339C749.32 147.09 751.75 145.954 754.706 143.257C757.779 140.452 759.131 138.134 758.406 136.629C757.703 134.671 759.861 132.05 768.963 123.742L780.429 113.276L791.616 113.899L802.802 114.523L827.152 92.2958L851.384 70.1769L852.359 46.3181L853.441 22.5775L876.115 2.31349C896.77 -15.8902 898.682 -18.0688 897.418 -20.1655C895.625 -23.0794 890.794 -21.487 890.63 -17.8694C890.557 -16.2867 883.779 -9.23217 870.303 3.06808L850.209 21.4106L849.126 45.1512L848.044 68.8918L824.994 89.9317L801.826 111.08L790.64 110.456L779.453 109.833L767.396 120.839C757.821 129.578 754.897 131.597 753.011 130.718C749.8 129.099 741.053 137.084 742.481 140.547C743.195 142.279 741.982 144.036 738.102 147.145L732.696 151.43L725.112 143.834L717.42 136.12L722.858 131.156C726.522 127.812 728.953 126.676 730.504 127.427C732.056 128.177 734.487 127.042 737.442 124.344C740.515 121.539 741.867 119.222 741.143 117.716C740.331 115.64 744.253 111.627 766.475 91.3424L792.716 67.3893L800.511 67.8579C807.855 68.3059 808.661 68.0028 816.581 60.7737C822.609 55.2709 825.76 53.2622 828.817 53.2883C831.875 53.3144 833.154 52.5797 833.71 50.3393C834.928 45.9767 833.654 44.106 829.358 43.9102C825.967 43.7556 825.612 44.0793 824.522 48.1079C823.838 50.6823 820.703 54.8442 816.211 58.9443C809.474 65.0944 808.441 65.3872 799.602 65.4375L790.204 65.3489L763.371 89.8415C742.686 108.723 736.452 113.764 735.599 112.592C733.914 109.796 724.488 117.75 725.238 121.183C725.716 123.13 724.246 125.555 720.7 128.792L715.38 133.648L708.367 125.964L701.354 118.281L707.264 112.886C710.574 109.865 713.714 108.083 714.253 108.674C714.901 109.383 717.46 107.913 720.06 105.54C722.661 103.166 724.357 100.751 723.71 100.042C723.062 99.3325 732.56 89.7964 750.172 73.7197L777.714 48.5797L786.639 49.0998L795.565 49.62L808.568 37.7513C818.497 28.688 822.356 26.0318 825.08 25.9294C829.838 25.9197 831.961 21.5984 828.832 18.1705C825.703 14.7425 821.207 16.4634 820.764 21.2012C820.414 23.9041 817.536 27.3981 808.08 36.0298L795.668 47.359L785.612 46.7873L775.556 46.2156L748.723 70.7082C722.955 94.2298 721.783 95.0827 719.142 93.3763C716.943 91.9166 715.329 92.5228 711.665 95.8676C708.592 98.6729 707.24 100.99 707.846 102.604C708.452 104.218 707.1 106.535 703.436 109.88L698.117 114.735L691.104 107.052L684.09 99.3686L689.882 94.0816C693.901 90.4131 696.342 89.0517 698.002 89.9203C699.328 90.6605 701.866 89.6433 704.467 87.2696C707.067 84.8959 708.311 82.4603 707.695 81.0728C706.991 79.1148 709.031 76.6023 717.542 68.8337L728.299 59.015L729.349 40.9373L730.41 22.6334L752.216 4.02906L773.914 -14.6935L787.372 -14.1933L800.949 -13.801L818.088 -29.446C829.909 -40.2358 836.132 -45.0499 837.941 -44.9675C840.084 -44.7565 840.695 -45.7482 840.829 -48.6875C840.994 -52.3051 840.779 -52.5415 837.387 -52.6961C834.674 -52.8198 833.512 -52.193 832.592 -49.4029C831.821 -47.3989 824.559 -39.6866 814.985 -30.947L798.791 -16.1651L784.536 -16.5883L770.292 -17.2376L748.671 2.28144L727.05 21.8005L725.891 39.7601L724.959 57.73L714.793 67.0091C705.691 75.3172 704.412 76.0518 701.879 74.4636C699.787 73.1222 698.066 73.6101 694.874 76.5233C692.156 79.005 690.804 81.3223 691.528 82.8281C692.242 84.5599 690.664 86.867 686.645 90.5355L680.853 95.8224L673.84 88.1392L666.827 80.4559L672.619 75.169C676.638 71.5005 679.079 70.1391 680.738 71.0077C684.392 72.8735 691.525 65.4953 689.774 61.677C688.433 58.7838 689.389 57.6945 705.11 43.3442L722.013 27.9149L722.668 11.0652L723.323 -5.78445L763.63 -42.5774C792.117 -68.5806 804.616 -79.3393 806.425 -79.2569C810.042 -79.092 811.939 -83.4236 809.35 -86.2606C806.976 -88.861 803.307 -87.8955 802.345 -84.2009C801.939 -82.7467 783.458 -65.0103 761.236 -44.7257L720.692 -7.71697L719.682 9.45641L718.555 26.7377L702.479 41.4117C689.122 53.6041 685.843 55.9468 683.957 55.0679C682.632 54.3278 680.093 55.3449 677.493 57.7186C674.892 60.0924 673.648 62.5279 674.265 63.9155C674.979 65.6473 673.401 67.9544 669.382 71.6228L663.59 76.9098L658.842 71.7089C650.211 62.2525 634.933 61.896 625.122 70.8514L620.631 74.9515L615.452 69.2777C612.646 66.2044 610.314 62.6996 610.376 61.3429C610.52 58.1775 603.959 50.5149 601.765 51.4344C600.377 52.0509 595.814 47.7646 585.025 35.9442L570.135 19.632L571.124 2.9109L572.22 -13.6921L537.478 -51.7538C511.906 -79.7681 502.873 -90.3755 502.966 -92.4104C503.069 -94.6714 502.186 -95.1649 499.246 -95.2989C495.629 -95.4638 495.392 -95.248 495.227 -91.6304C495.093 -88.6911 495.504 -87.766 497.765 -87.663C499.8 -87.5702 509.326 -77.8466 534.574 -50.1868L568.669 -12.8344L567.789 4.00501L566.908 20.8444L582.229 37.6293C596.579 53.3504 597.432 54.5222 595.726 57.1633C594.384 59.2545 594.872 60.9761 597.678 64.0494C600.051 66.6499 602.379 67.7755 603.874 67.2773C605.606 66.5632 607.805 68.0229 611.69 72.2782L617.085 78.1884L609.401 85.2017L601.718 92.2151L596.323 86.3048C592.439 82.0495 591.185 79.7266 592.054 78.067C592.686 76.6231 591.777 74.2026 589.403 71.6021C586.598 68.5288 584.928 67.8863 582.723 69.032C579.938 70.4909 578.849 69.535 563.419 52.6319L547.019 34.6649L536.834 34.4272L526.66 33.9634L499.382 3.60552C474.694 -23.9154 471.987 -26.6444 469.89 -25.3805C467.094 -23.6954 468.373 -19.4456 472.145 -17.6876C473.697 -16.9372 485.92 -4.25841 499.525 10.4092L524.254 37.0257L535.107 37.5204L545.95 38.2413L561.703 55.499C574.65 69.6835 577.209 73.1987 576.33 75.0845C574.721 78.0698 582.058 86.1077 585.178 84.7772C586.909 84.0631 589.216 85.641 592.885 89.66L598.172 95.452L590.489 102.465L582.805 109.479L577.411 103.568C573.526 99.3131 572.273 96.9902 573.141 95.3305C573.774 93.8866 572.864 91.4662 570.599 88.9839C568.225 86.3834 565.897 85.2577 564.51 85.8742C562.434 86.6858 557.665 81.9371 531.123 52.8589L500.156 18.9344L483.307 18.2795L466.457 17.6247L429.556 -22.801L392.763 -63.1086L393.901 -80.6159C394.452 -90.2201 395.759 -98.9968 396.941 -100.076C398.241 -101.263 397.958 -102.522 396.104 -104.079C392.61 -106.957 387.964 -104.45 389.716 -100.632C390.322 -99.0181 390.578 -89.717 390.242 -79.8764L389.536 -61.8963L426.76 -21.1159L463.867 19.7723L481.374 20.9103L498.655 22.0379L529.19 55.4896C558.754 87.8775 559.607 89.0493 557.9 91.6903C555.711 94.9891 560.849 101.567 565.618 101.332C567.663 101.198 570.628 103.259 573.972 106.923L579.259 112.715L571.576 119.729L563.893 126.742L558.498 120.832C554.614 116.577 553.36 114.254 554.229 112.594C554.861 111.15 553.952 108.73 551.578 106.129C548.773 103.056 547.103 102.413 544.898 103.559C542.113 105.018 541.023 104.062 517.394 78.1754C494.304 52.8798 492.675 51.3328 488.595 51.3734C486.216 51.3782 483.749 50.8126 483.22 49.9955C480.554 46.3621 478.981 46.0639 476.381 48.4376C472.835 51.6745 473.055 54.2901 477.032 56.5106C478.8 57.4974 480.963 57.2562 482.618 55.7457C484.155 54.343 487.028 53.4544 489.17 53.6653C492.67 53.9381 496.359 57.5049 516.644 79.7272C536.389 101.359 539.929 105.711 538.824 107.587C537.569 110.249 544.865 119.191 547.835 118.647C548.868 118.354 552.039 120.877 555.06 124.187L560.347 129.979L552.663 136.992L544.98 144.006L539.585 138.095C535.701 133.84 534.447 131.517 535.316 129.858C536.935 126.646 528.735 117.663 526.253 119.928C524.716 121.331 518.437 114.927 476.142 68.5915L427.804 15.6361L428.53 2.18829L429.257 -11.2596L410.806 -31.4725C399.585 -43.7657 392.397 -52.5897 392.459 -53.9463C392.613 -57.3378 387.83 -59.2552 385.229 -56.8815C382.392 -54.2919 383.887 -49.8057 387.505 -49.6408C389.087 -49.5686 396.034 -42.908 407.903 -29.9055L425.813 -10.2837L425.087 3.16419L424.361 16.6121L473.238 70.1584C515.965 116.967 521.879 123.921 520.343 125.323C518.333 127.158 525.834 136.562 528.923 135.91C529.956 135.617 533.126 138.141 536.147 141.451L541.434 147.243L533.751 154.256L526.068 161.269L521.32 156.068C518.515 152.995 516.527 149.392 516.619 147.357C516.702 145.549 515.048 142.075 512.997 139.829C509.868 136.401 508.64 136.005 506.867 137.624C504.858 139.458 503.758 138.728 496.334 130.12L488.036 120.792L489.066 108.151L489.869 95.4995L463.974 67.1306L438.186 38.8798L405.402 37.3853L372.617 35.8908L355.353 16.9782C344.779 5.39419 338.023 -2.95708 338.085 -4.31369C338.24 -7.70519 333.456 -9.62255 330.855 -7.24881C328.018 -4.65929 329.513 -0.173012 333.131 -0.00810158C334.713 0.0640491 341.444 6.48829 352.989 19.1361L370.361 38.167L403.685 40.2525L436.901 42.2198L461.491 69.3964L486.189 96.6912L485.797 110.268L485.513 123.962L493.713 132.946C498.568 138.265 501.548 142.479 500.839 143.126C498.948 144.853 506.973 152.695 510.709 152.752C512.744 152.845 516.151 155.153 518.956 158.226L523.811 163.545L515.568 170.42L507.325 177.294L502.459 172.201C499.751 169.472 497.763 165.87 497.835 164.287C498.031 159.991 490.673 152.405 488.427 154.456C487.009 155.75 484.712 153.946 476.081 144.49L465.507 132.906L466.13 121.719L466.753 110.532L443.987 85.5912L421.328 60.7684L396.457 59.6347L371.468 58.6088L355.217 39.8556C346.4 29.4846 338.144 19.2524 336.998 17.0477C335.01 13.4452 334.568 13.1985 332.086 15.4644L329.249 18.0539L349.78 39.8343L370.419 61.733L395.29 62.8667L420.043 64.1084L441.731 87.8674L463.31 111.508L462.687 122.695L462.064 133.882L472.637 145.466C481.053 154.686 483.073 157.61 482.086 159.378C480.585 162.481 488.353 170.992 491.581 169.779C493.312 169.065 495.512 170.525 499.396 174.78L504.791 180.691L497.108 187.704L489.424 194.717L484.137 188.925C481.116 185.616 479.01 182.121 479.277 181.227C480.208 178.211 471.524 169.885 469.515 171.719C467.978 173.122 464.289 169.555 443.141 146.387L418.541 119.436L419.009 111.641C419.457 104.298 419.154 103.491 412.141 95.8079C408.041 91.3162 404.424 86.1668 404.172 84.2295C403.356 79.7741 399.142 77.7694 396.187 80.4669C392.996 83.3801 395.785 89.2848 400.112 88.8023C402.502 88.5714 405.133 90.5039 409.988 95.8231C416.246 102.679 416.657 103.604 416.589 112.55L416.5 121.949L440.993 148.781C461.925 171.713 465.141 175.711 463.605 177.114C462.304 178.301 463.018 180.033 466.04 183.342C468.737 186.297 471.054 187.649 472.668 187.043C474.4 186.329 476.599 187.789 480.483 192.044L485.878 197.954L478.195 204.968L470.512 211.981L465.225 206.189C461.88 202.524 460.097 199.385 460.416 197.36C461.054 193.311 455.335 187.046 452.216 188.376C450.14 189.188 446.019 185.149 425.303 162.453L400.81 135.621L401.33 126.695L401.85 117.769L389.766 104.531C382.753 96.8473 377.831 90.5055 378.108 89.3853C378.792 86.8109 373.916 81.9439 371.614 82.7453C368.839 83.9782 367.127 89.2246 368.853 91.1158C369.716 92.0615 371.505 92.5961 372.979 92.5501C375.025 92.4167 378.714 95.9834 387.423 106.236L399.26 119.917L398.848 128.961L398.662 138.015L423.047 164.729C446.46 190.38 447.313 191.551 445.607 194.193C444.265 196.284 444.753 198.005 447.559 201.079C449.932 203.679 452.26 204.805 453.755 204.307C455.487 203.593 457.686 205.052 461.571 209.308L466.966 215.218L459.282 222.231L451.599 229.244L446.204 223.334C442.32 219.079 441.066 216.756 441.935 215.096C443.554 211.885 436.746 204.664 432.969 205.511C430.451 206.076 428.262 204.391 420.838 195.782L411.795 185.401L393.276 184.104L374.53 182.796L355.864 162.347L337.09 141.779L337.867 127.201L338.645 112.622L322.892 95.3647C314.261 85.9084 307.073 77.0843 306.8 75.5992C306.179 71.8324 302.613 70.537 300.013 72.9107C297.176 75.5003 298.671 79.9865 302.288 80.1515C303.871 80.2236 310.062 86.0568 319.989 96.9316L335.202 113.598L334.424 128.177L333.647 142.755L353.607 164.623L373.568 186.491L391.646 187.541L409.724 188.592L418.561 198.511C425.554 206.646 426.915 209.087 426.124 211.543C424.936 215.228 430.095 221.354 434.411 221.097C436.456 220.964 439.421 223.025 442.766 226.689L448.053 232.481L440.37 239.495L432.686 246.508L427.292 240.598C423.407 236.342 422.154 234.019 423.022 232.36C423.655 230.916 422.745 228.495 420.372 225.895C417.566 222.822 415.896 222.179 413.692 223.325C410.906 224.784 409.817 223.828 394.927 207.516L379.066 190.14L362.217 189.485L345.367 188.83L309.437 149.468C282.571 120.035 273.323 109.192 272.778 106.221C272.126 103.133 271.468 102.65 268.056 102.947C264.752 103.363 264.279 103.795 264.145 106.734C264.022 109.447 264.551 110.264 266.704 110.249C268.739 110.342 279.02 120.893 306.749 151.272L344.082 192.17L360.932 192.825L377.781 193.48L393.103 210.265C405.727 224.095 408.177 227.492 407.298 229.377C405.69 232.363 411.408 238.627 415.499 238.361C417.544 238.227 420.508 240.288 423.853 243.953L429.14 249.745L425.003 253.521C414.601 263.016 413.906 275.786 423.293 286.069L428.364 291.625L421.981 297.451C417.371 301.659 415.048 302.913 413.27 302.152C411.945 301.412 409.406 302.429 406.805 304.803C404.205 307.177 402.961 309.612 403.578 311C404.281 312.958 401.532 316.118 387.82 328.634L371.153 343.847L354.196 343.074L337.238 342.301L297.285 378.77C268.443 405.097 256.299 415.532 253.792 415.871C251.047 416.426 250.102 417.289 249.762 419.766C248.595 427.982 252.228 425.316 296.113 384.608L339.17 344.655L356.235 345.546L373.075 346.427L389.978 330.998C404.162 318.05 407.097 315.805 408.5 317.342C409.686 318.642 411.536 317.82 415.437 314.259C418.392 311.562 420.325 308.931 419.677 308.222C419.138 307.631 421.554 304.342 425.1 301.105L431.601 295.171L438.614 302.854L445.627 310.538L439.244 316.364C434.635 320.572 432.312 321.826 430.534 321.065C427.548 319.456 419.511 326.793 420.841 329.912C421.545 331.87 419.386 334.491 410.876 342.259L400.001 352.186L383.161 351.305L366.322 350.424L344.336 370.493L322.35 390.562L321.958 404.138L321.339 417.704L301.029 435.81C282.502 452.072 280.718 453.916 282.09 456.131C283.883 459.045 288.714 457.453 289.804 453.424C290.22 451.744 297.837 443.708 306.938 435.4L323.143 420.392L324.116 406.502L324.981 392.494L346.139 373.181L367.298 353.867L384.137 354.748L400.977 355.629L412.088 345.487C420.717 337.61 423.523 335.699 425.29 336.686C428.394 338.187 436.55 330.742 436.401 326.543C436.278 324.272 437.974 321.857 441.973 318.641L447.734 314.032L454.747 321.715L461.761 329.399L456.647 334.717C453.08 338.406 450.521 339.875 448.27 339.546C446.472 339.237 443.342 340.794 440.623 343.276C436.841 346.728 436.337 347.838 438.171 349.848C440.221 352.094 439.502 352.967 412.788 377.352L385.246 402.492L384.952 411.428L384.658 420.364L371.892 432.017C363.854 439.354 357.641 443.942 355.467 444.409C352.497 444.954 351.669 445.709 351.654 448.54C351.561 450.575 352.599 452.662 354.043 453.294C356.92 454.785 361.134 451.805 360.59 448.834C360.415 447.694 366.13 441.61 374.168 434.273L387.998 421.649L388.344 411.583L388.689 401.516L414.93 377.563C437.153 357.278 441.506 353.738 443.499 354.735C446.485 356.344 454.168 349.331 453.321 345.554C452.843 343.606 454.292 341.633 458.882 337.877L464.997 332.945L472.15 340.068L479.194 347.073L472.574 353.115C469.028 356.352 465.642 358.577 464.994 357.867C464.455 357.276 461.551 358.843 458.596 361.541C454.695 365.101 453.708 366.869 454.895 368.169C456.298 369.706 452.731 373.395 429.563 394.543L402.613 419.143L402.37 426.949C402.148 434.302 401.773 435.078 394.09 442.092C389.598 446.192 384.449 449.809 382.511 450.06C378.056 450.877 376.051 455.09 378.857 458.163C381.662 461.237 386.04 459.624 387.259 455.261C387.686 453.355 391.756 448.556 396.248 444.456C403.931 437.442 404.306 436.667 404.528 429.313L404.771 421.507L431.603 397.015C454.298 376.299 458.769 372.651 460.763 373.648C463.748 375.257 471.432 368.243 470.584 364.466C470.107 362.519 471.556 360.546 476.145 356.79L482.261 351.857L489.413 358.981L496.457 365.986L490.074 371.812C485.819 375.696 482.561 377.587 480.536 377.268C478.846 377.078 475.844 378.3 473.953 380.027C472.062 381.753 470.936 384.081 471.553 385.468C472.256 387.426 470.098 390.047 460.642 398.678L448.939 409.36L448.018 422.119L447.096 434.879L424.165 455.811L401.115 476.851L376.48 475.501L351.953 474.27L331.782 491.816C320.809 501.398 310.557 510.107 308.933 510.939C306.836 512.203 306.666 513.441 308.264 515.667C310.489 519.053 315.407 518.031 315.592 513.961C315.664 512.379 322.088 505.648 334.736 494.103L353.649 476.839L378.52 477.973L403.391 479.107L426.914 457.635L450.436 436.164L451.337 423.857L452.13 411.432L463.488 400.847C473.654 391.568 475.17 390.618 477.477 392.196C480.775 394.385 489.137 387.403 487.719 383.713C487.123 381.873 488.583 379.674 493.193 375.466L499.576 369.64L506.589 377.323L513.603 385.006L507.22 390.833C502.61 395.041 500.287 396.294 498.509 395.533C497.183 394.793 494.645 395.81 492.044 398.184C489.444 400.558 488.2 402.993 488.816 404.381C489.52 406.339 487.598 408.743 480.033 415.649L470.34 424.496L469.891 436.824L469.443 449.152L441.665 474.508L413.887 499.863L380.984 498.477L347.963 497.198L329.641 513.922C319.476 523.201 309.223 531.91 306.772 533.498C302.696 535.917 302.568 536.251 305.188 538.41L308.024 540.805L329.676 520.608L351.328 500.41L382.982 501.853L414.744 503.414L443.704 476.98L472.783 450.437L473.231 438.109L473.68 425.782L482.782 417.473C490.82 410.136 492.099 409.402 494.632 410.99C496.724 412.331 498.445 411.844 501.637 408.93C504.355 406.449 505.707 404.131 504.983 402.626C504.387 400.786 505.847 398.587 510.457 394.379L516.84 388.552L523.853 396.236L530.866 403.919L524.483 409.745C519.873 413.953 517.55 415.207 515.772 414.446C514.339 413.588 511.908 414.723 509.189 417.205C505.998 420.118 505.355 421.788 506.501 423.992C508.068 426.896 507.004 427.867 454.758 475.558L401.566 524.111L400.593 538.001L399.738 551.783L380.353 569.478C367.469 581.239 360.063 587.132 358.48 587.06C354.637 586.885 353.074 591.345 355.771 594.3C357.821 596.546 358.51 596.351 361.054 592.728C362.74 590.539 372.936 580.582 383.693 570.763L403.315 552.852L403.697 539.502L404.197 526.044L457.152 477.706C503.252 435.626 510.56 429.389 512.554 430.386C513.879 431.126 516.3 430.217 518.9 427.843C521.382 425.577 522.508 423.249 522.01 421.754C521.296 420.022 522.874 417.715 527.602 413.399L534.221 407.357L540.664 415.128L546.999 422.78L541.531 428.421C537.373 432.65 535.276 433.914 533.38 433.261C529.696 432.073 522.013 439.087 523.343 442.206C524.155 444.282 520.115 448.403 497.302 469.227C469.288 494.799 468.471 495.328 462.885 491.108C461.57 490.142 458.877 489.566 457.048 489.936C454.422 490.383 453.81 491.374 454.021 494.216C454.59 499.113 458.028 500.743 461.456 497.614C462.874 496.319 465.973 495.441 468.342 495.662C472.402 496.074 474.164 494.681 499.696 471.375C522.864 450.228 526.863 447.011 528.265 448.548C530.1 450.557 539.504 443.056 538.852 439.968C538.667 439.053 541.437 435.441 544.984 432.204L551.485 426.27L557.928 434.04L564.263 441.692L558.322 447.766C553.809 452.318 551.831 453.474 550.171 452.605C546.292 450.729 539.158 458.107 541.028 461.818C542.487 464.603 541.531 465.692 508.789 495.58L475.101 526.331L456.894 525.614L438.806 524.789L399.09 561.043L359.491 597.188L358.677 615.05C358.224 624.999 356.886 634.454 355.781 636.329C353.355 639.844 355.148 642.758 359.691 642.512C363.211 642.332 364.368 639.326 361.886 636.607C361.033 635.436 360.767 626.361 361.673 616.433L363.186 598.15L401.839 562.867L440.491 527.585L458.816 528.194L477.14 528.803L511.065 497.836C532.933 477.875 545.421 467.342 546.068 468.052C547.471 469.588 556.1 461.712 556.224 458.999C556.393 457.76 558.937 454.138 562.021 451.106L567.608 445.357L574.513 452.922L581.526 460.605L576.058 466.247C571.9 470.475 569.803 471.739 567.907 471.086C564.115 469.781 555.132 477.981 557.398 480.463C558.8 482 556.297 484.718 541.64 498.097L524.382 513.85L512.723 513.658L501.063 513.467L474.585 537.636C459.928 551.015 446.011 563.068 443.678 564.548C439.839 566.752 439.582 567.42 441.632 569.666C444.329 572.621 448.913 571.47 449.088 567.627C449.16 566.044 457.594 557.479 475.916 540.755L502.63 516.37L513.817 516.993L525.004 517.617L543.089 501.108C558.337 487.19 561.39 484.837 562.792 486.373C565.058 488.856 574.042 480.655 573.086 476.76C572.609 474.812 574.058 472.839 578.647 469.084L584.763 464.151L591.776 471.835L598.682 479.4L592.448 484.44C589.149 487.235 585.31 489.439 584.061 489.495C582.931 489.444 580.017 491.237 577.534 493.503C573.87 496.847 573.474 498.075 575.201 499.967C577.251 502.213 576.531 503.086 559.864 518.3L542.37 534.268L541.715 551.118L541.06 567.968L504.299 601.524C478.531 625.045 466.859 635.049 465.051 634.966C461.433 634.801 459.536 639.133 461.91 641.733C463.744 643.743 466.216 641.703 503.954 606.606L544.174 569.242L545.055 552.403L545.828 535.445L562.731 520.016C573.133 510.521 579.948 505.168 580.595 505.877C582.43 507.886 591.11 498.879 590.35 495.673C589.872 493.725 591.322 491.752 595.911 487.996L602.027 483.064L608.768 489.262C614.42 494.504 616.866 495.522 622.852 495.908C628.731 496.176 631.151 495.267 637.02 490.777L644.071 485.207L649.466 491.117C653.135 495.136 654.388 497.459 653.519 499.119C652.265 501.78 659.982 511.422 661.992 509.587C662.701 508.94 669.216 515.128 679.035 525.884L695.003 543.379L694.23 560.336L693.576 577.186L731.653 619.138C764.551 655.416 770.183 661.111 773.122 661.245C776.287 661.389 776.524 661.173 775.604 658.979C775.106 657.483 773.143 655.808 771.139 655.037C768.909 654.255 755.489 640.503 732.291 615.089L696.793 576.2L697.673 559.36L698.554 542.521L682.478 524.908C667.588 508.596 666.519 507.188 668.107 504.655C670.179 501.464 664.476 492.368 661.131 493.688C659.861 494.197 657.004 492.254 653.228 488.117L647.402 481.734L655.085 474.72L662.768 467.707L668.163 473.617C672.047 477.873 673.301 480.196 672.432 481.855C670.813 485.067 679.013 494.05 681.495 491.784C682.914 490.49 685.211 492.294 693.842 501.75L704.416 513.334L703.535 530.173L702.654 547.013L722.723 568.999L742.792 590.984L756.25 591.485L769.709 591.985L785.462 609.243C794.525 619.172 801.173 627.405 801.111 628.761C801.039 630.344 802.355 631.31 804.821 631.876C808.418 632.493 808.655 632.277 808.83 628.434C809.092 625.16 808.455 624.225 805.429 623.521C803.08 622.847 796.781 616.896 786.423 605.548L770.994 588.645L757.535 588.145L744.077 587.644L724.548 566.25L704.911 544.736L706.007 528.133L706.996 511.412L696.314 499.71C687.575 490.136 685.987 487.684 687.406 486.389C688.706 485.203 687.992 483.471 684.863 480.043C682.489 477.442 680.074 475.746 679.365 476.394C678.774 476.933 675.485 474.518 672.248 470.971L666.206 464.352L673.977 457.909L681.629 451.574L687.163 456.924C691.176 460.846 692.332 462.824 691.463 464.484C690.594 466.143 691.622 468.456 694.319 471.411C697.448 474.839 699 475.589 701.323 474.336C704.108 472.877 705.197 473.833 728.935 499.838L753.643 526.906L762.579 527.2L771.515 527.495L783.168 540.261C790.182 547.944 795.093 554.512 795.453 556.567C796.269 561.023 800.483 563.027 803.556 560.222C806.393 557.632 805.242 553.049 801.399 552.873C799.816 552.801 794.38 547.795 786.719 539.403L774.419 525.928L763.921 525.109L753.423 524.291L728.93 497.458C707.998 474.527 704.782 470.529 706.318 469.126C708.801 466.86 700.6 457.877 697.137 459.305C695.405 460.019 693.54 458.688 690 454.335L685.175 448.337L692.859 441.324L700.542 434.311L706.075 439.661C710.088 443.582 711.244 445.561 710.376 447.22C708.638 450.54 716.838 459.523 719.321 457.257C720.857 455.855 724.654 459.54 746.234 483.18L771.374 510.722L779.179 510.964C786.759 511.197 787.309 511.562 794.754 519.718C799.07 524.446 802.481 529.133 802.095 530.135C801.422 532.483 805.09 536.502 807.49 536.045C810.805 535.403 812.753 529.941 810.703 527.695C809.624 526.513 807.857 525.526 806.824 525.819C805.909 526.004 801.434 522.288 797.118 517.56C789.457 509.167 789.123 509.039 780.413 508.755L771.477 508.461L747.308 481.983C724.11 456.569 723.257 455.398 724.964 452.757C726.423 450.557 725.817 448.944 722.688 445.516C719.991 442.561 717.781 441.327 716.049 442.041C714.318 442.755 712.452 441.424 708.912 437.071L704.088 431.074L711.211 423.922L718.216 416.877L724.258 423.497C727.495 427.043 729.72 430.43 729.011 431.077C728.42 431.616 729.771 434.284 732.144 436.884C734.518 439.485 737.051 441.073 737.642 440.533C738.352 439.886 743.464 444.537 750.477 452.22L762.13 464.986L774.458 465.435L786.785 465.884L807.394 488.461L827.894 510.919L826.76 535.79L825.627 560.662L843.43 580.165C855.298 593.168 861.299 600.692 861.227 602.274C861.062 605.892 865.394 607.789 868.231 605.199C870.831 602.825 869.866 599.156 866.171 598.195C864.717 597.789 855.828 589 846.441 578.716L829.178 559.804L830.204 534.815L831.121 509.707L809.758 486.303L788.394 462.898L775.635 461.977L762.876 461.055L752.086 449.235C741.944 438.124 741.307 437.188 743.553 435.138C745.562 433.304 745.161 432.153 741.709 428.37C739.011 425.415 736.694 424.064 735.08 424.67C733.348 425.384 731.149 423.924 727.265 419.669L721.87 413.759L729.553 406.745L737.237 399.732L743.063 406.115C747.271 410.725 748.525 413.048 747.764 414.826C747.024 416.151 747.933 418.572 749.875 420.699C751.817 422.827 754.145 423.953 755.532 423.336C757.49 422.633 760.003 424.673 767.34 432.711L776.727 442.995L789.055 443.443L801.382 443.892L826.846 471.788L852.202 499.566L850.825 532.243L849.331 565.027L869.055 587.111C886.828 607.293 888.78 609.194 890.995 607.823C894.027 605.922 892.198 601.307 887.954 599.981C885.714 599.425 878.767 592.765 868.625 581.654L852.656 564.159L854.15 531.375L855.645 498.59L829.21 469.63L802.667 440.552L790.34 440.103L778.012 439.655L769.057 429.844C760.856 420.86 760.337 419.817 762.465 417.875C764.475 416.041 764.074 414.889 760.621 411.107C757.924 408.152 755.606 406.8 753.993 407.406C752.261 408.12 750.062 406.661 746.178 402.405L740.783 396.495L748.466 389.482L756.149 382.468L761.976 388.851C766.184 393.461 767.437 395.784 766.676 397.562C764.811 401.216 771.541 407.64 775.144 405.652C778.047 404.085 779.019 405.148 827.356 458.104L876.665 512.123L889.111 512.464L901.547 513.031L922.35 536.296C941.093 557.542 943.272 559.454 945.369 558.19C948.401 556.289 946.572 551.674 942.328 550.348C940.087 549.793 932.601 542.541 920.733 529.539L902.606 509.68L890.278 509.232L877.95 508.783L829.073 455.237C786.346 408.428 780.432 401.474 781.969 400.072C783.269 398.885 782.555 397.153 779.965 394.316C777.592 391.716 775.156 390.472 773.769 391.088C771.929 391.684 769.73 390.224 765.522 385.615L759.695 379.232L767.379 372.218L775.062 365.205L780.888 371.588C785.096 376.198 786.35 378.521 785.589 380.299C784.849 381.624 785.866 384.163 788.24 386.763C790.829 389.6 792.489 390.469 793.789 389.282C795.326 387.879 799.123 391.564 820.81 415.323C847.677 444.756 847.892 444.993 842.737 451.215C840.707 453.501 840.753 454.976 842.803 457.222C844.961 459.586 846.092 459.638 848.456 457.48C850.584 455.537 850.882 453.965 849.5 451.976C848.441 450.342 847.681 447.135 847.903 444.766C848.304 440.933 846.696 438.934 823.282 413.284C799.113 386.806 798.26 385.634 799.967 382.993C802.274 379.586 796.489 372.299 792.681 373.825C790.842 374.421 788.642 372.961 784.434 368.351L778.608 361.968L786.291 354.955L793.974 347.941L799.909 354.443C804.44 359.407 805.489 361.267 804.07 362.562C802.77 363.749 803.484 365.481 806.613 368.909C809.742 372.337 811.402 373.205 812.702 372.019C814.238 370.616 818.683 375.01 846.089 405.034L877.703 439.668L876.822 456.507L875.941 473.346L912.734 513.654L949.419 553.843L967.507 554.668C977.455 555.121 986.458 556.438 987.537 557.62C990.126 560.457 994.407 558.5 994.711 554.322C994.737 551.264 994.413 550.91 991.346 551.11C989.3 551.243 979.45 551.134 969.373 551.014L950.812 550.621L915.098 511.496L879.384 472.37L880.265 455.531L881.146 438.692L849.424 403.94C822.342 374.271 818.046 369.09 819.044 367.097C820.298 364.435 812.581 354.794 810.571 356.628C809.98 357.167 806.692 354.752 803.455 351.206L797.413 344.586L805.183 338.143L812.836 331.808L818.369 337.158C822.382 341.08 823.538 343.058 822.669 344.718C821.05 347.929 828.701 356.548 832.046 355.228C833.896 354.406 837.164 357.274 850.435 371.813L866.404 389.307L865.781 400.494L865.158 411.681L890.082 438.986C908.101 458.726 914.975 466.969 914.882 469.004C914.897 471.157 915.663 471.759 918.602 471.893C922.22 472.057 922.456 471.842 922.621 468.224C922.755 465.285 922.226 464.468 920.083 464.257C918.048 464.164 910.465 456.568 892.338 436.71L867.414 409.405L868.253 398.454L869.092 387.504L852.476 369.3C838.341 353.816 835.988 350.763 837.525 349.36C838.825 348.173 838.111 346.441 835.09 343.132C832.716 340.531 830.193 338.717 829.386 339.02C828.687 339.441 825.389 337.252 822.249 334.05L816.5 328.464L824.065 321.558L831.748 314.545L837.282 319.895C841.295 323.816 842.451 325.795 841.582 327.454C840.713 329.114 841.741 331.427 844.438 334.382C847.567 337.81 849.119 338.56 851.442 337.307C854.227 335.848 855.316 336.804 870.422 353.352L886.499 370.964L902.218 371.568L918.163 372.181L954.612 412.586C989.668 451.229 991.179 452.884 993.306 450.942C995.079 449.323 994.797 448.064 992.079 445.561C990.234 443.778 973.608 425.801 955.373 405.824L922.141 369.417L904.741 368.398L887.568 367.388L871.707 350.012C861.889 339.256 856.319 332.205 857.028 331.557C858.683 330.047 850.031 321.042 847.944 322.08C846.793 322.481 843.936 320.538 840.581 317.1L835.294 311.308L841.256 304.783C844.478 301.191 847.773 296.017 848.467 293.216C849.737 287.723 846.475 277.266 841.728 272.065C837.304 267.218 842.68 258.627 850.034 258.849C853.759 259.132 861.766 252.473 861.33 249.621C861.155 248.481 867.698 241.642 877.154 233.01L893.466 218.12L910.306 219.001L927.145 219.882L964.497 185.787C990.739 161.833 1002.53 151.722 1004.34 151.804C1007.95 151.969 1009.85 147.638 1007.26 144.801C1005 142.318 1000.3 143.351 1000.86 146.095C1001.03 147.236 986.335 161.519 963.758 182.128L926.169 216.439L909.33 215.558L892.49 214.677L874.996 230.646C858.329 245.859 857.394 246.496 855.344 244.251C853.51 242.241 852.359 242.642 848.576 246.094C845.621 248.792 844.269 251.109 844.875 252.723C845.481 254.337 844.13 256.654 840.465 259.999L835.146 264.854L828.133 257.171L821.12 249.488L827.03 244.093C830.34 241.072 833.479 239.289 834.019 239.88C835.745 241.771 844.415 232.99 843.398 230.452C842.695 228.494 845.788 225.236 860.189 212.525L878.007 196.911L878.866 185.508L879.736 173.879L909.719 147.378C940.185 120.219 943.181 116.617 935.118 117.042C932.621 117.155 931.675 118.018 930.873 120.701C930.2 123.049 921.766 131.614 903.208 148.554L876.376 173.047L875.506 184.675L874.625 196.53L857.409 211.379C842.428 224.403 839.966 226.217 837.993 224.768C834.92 222.588 826.302 230.239 827.612 233.81C828.218 235.424 826.866 237.741 823.202 241.086L817.883 245.941L810.869 238.258L803.856 230.575L809.648 225.288C813.667 221.619 816.108 220.258 817.768 221.127C819.093 221.867 821.514 220.958 824.114 218.584C826.597 216.318 827.722 213.99 827.224 212.495C826.412 210.419 831.161 205.651 860.239 179.108L894.4 147.926L895.055 131.076L895.71 114.226L935.426 77.973L975.025 41.8275L992.424 42.8472C1001.92 43.2801 1010.93 44.3707 1012.49 45.1211C1014.25 46.108 1015.97 45.62 1017.41 43.8731C1020.06 40.5949 1019.26 38.0666 1015.42 37.8914ZM826.786 23.2883C826.195 23.8278 824.967 23.4319 824.104 22.4863C822.486 20.7133 823.364 18.8275 825.852 18.9409C827.66 19.0233 828.323 21.8857 826.786 23.2883ZM830.781 49.9792C829.835 50.8424 828.252 50.7702 827.389 49.8246C826.526 48.879 826.598 47.2962 827.544 46.4331C828.489 45.5699 830.072 45.642 830.935 46.5877C831.798 47.5333 831.726 49.116 830.781 49.9792ZM862.27 129.582C861.325 130.445 859.742 130.373 858.879 129.427C858.016 128.481 858.088 126.899 859.034 126.036C859.979 125.172 861.562 125.244 862.425 126.19C863.288 127.136 863.216 128.718 862.27 129.582ZM843.854 285.076C844.634 287.83 844.685 291.684 844.151 293.473C843.369 295.703 807.286 329.29 736.6 393.812C631.871 489.409 630.217 490.919 625.103 491.253C622.262 491.463 617.555 490.342 614.688 488.626C608.275 485.161 422.492 278.783 421.126 273.962C418.912 265.365 416.656 267.641 529.423 164.707L634.742 68.5711L642.43 68.9215L650.117 69.272L746.253 174.592C829.982 266.318 842.693 280.718 843.854 285.076ZM480.578 53.2737C479.633 54.1368 478.374 54.4193 477.834 53.8283C476.432 52.2916 477.352 49.5014 479.161 49.5839C481.648 49.6973 482.352 51.6552 480.578 53.2737ZM847.464 456.868C846.313 457.269 844.741 456.97 843.986 456.143C843.23 455.316 843.076 453.723 843.688 452.731C844.192 451.621 845.538 451.909 846.941 453.446C848.343 454.982 848.508 456.349 847.464 456.868ZM401.485 86.0328C400.873 87.0245 399.743 86.9729 398.771 85.9091C397.8 84.8453 397.873 83.2626 398.936 82.2915C400.946 80.4572 402.965 83.3814 401.485 86.0328ZM807.527 532.761C805.517 534.595 803.498 531.671 804.978 529.02C805.59 528.028 806.721 528.08 807.692 529.144C808.663 530.207 808.591 531.79 807.527 532.761ZM374.717 89.2307C373.771 90.0939 372.188 90.0217 371.325 89.0761C370.462 88.1305 370.534 86.5478 371.48 85.6846C372.425 84.8214 374.008 84.8935 374.871 85.8392C375.735 86.7848 375.662 88.3675 374.717 89.2307ZM802.025 559.019C799.25 560.252 796.521 557.975 798.531 556.141C799.595 555.17 801.178 555.242 802.149 556.306C803.12 557.37 803.068 558.5 802.025 559.019ZM460.516 495.872C457.741 497.105 455.012 494.828 457.022 492.993C458.086 492.022 459.668 492.095 460.639 493.158C461.611 494.222 461.559 495.353 460.516 495.872ZM384.227 457.162C383.302 457.573 382.181 457.295 381.642 456.704C381.103 456.113 380.928 454.973 381.421 454.089C381.915 453.205 383.153 453.375 384.124 454.439C385.095 455.502 385.152 456.751 384.227 457.162ZM357.363 450.047C356.772 450.586 355.523 450.643 354.639 450.149C353.755 449.656 353.925 448.417 354.989 447.446C356.053 446.475 357.301 446.419 357.712 447.344C358.123 448.269 357.954 449.507 357.363 450.047Z" fill="#14243A" fill-opacity="0.13"/>
<path d="M643.474 95.7044C641.892 95.6322 639.343 96.8754 637.451 98.6018C631.541 103.997 637.244 113.093 645.26 111.193C652.825 109.272 651.388 96.0651 643.474 95.7044ZM647.692 105.073C646.592 109.327 642.126 110.37 639.105 107.06C635.544 103.16 638.633 97.5228 643.685 98.5461C647.723 99.4099 648.89 101.162 647.692 105.073Z" fill="#14243A" fill-opacity="0.13"/>
<path d="M660.774 116.318C655.383 117.772 653.687 120.187 654.473 125.32C655.181 129.658 655.613 130.13 659.868 131.231C667.817 133.292 672.838 125.025 667.336 118.996C665.286 116.751 662.948 115.851 660.774 116.318ZM667.032 123.174C667.422 124.551 666.081 126.643 664.328 127.809C661.985 129.515 660.52 129.335 658.47 127.089C656.42 124.843 656.374 123.368 658.286 121.189C660.327 118.677 664.319 118.066 666.154 120.075C666.477 120.43 666.868 121.807 667.032 123.174Z" fill="#14243A" fill-opacity="0.13"/>
<path d="M679.764 137.122C672.174 137.115 669.87 147.886 676.607 151.705C680.024 153.786 686.627 150.576 687.835 146.439C689.054 142.077 684.748 137.122 679.764 137.122ZM685.194 144.733C685.034 150.73 679.633 152.409 676.35 147.388C673.792 143.873 676.141 139.562 680.565 139.424C684.537 139.265 685.508 140.329 685.194 144.733Z" fill="#14243A" fill-opacity="0.13"/>
<path d="M699.581 157.17C695.059 156.964 690.269 162.637 691.214 166.758C692.472 171.46 698.237 174.215 702.529 172.032C708.916 168.585 706.816 157.5 699.581 157.17ZM703.798 166.539C702.698 170.793 698.233 171.836 695.211 168.526C691.651 164.626 694.74 158.989 699.791 160.012C703.83 160.876 704.996 162.628 703.798 166.539Z" fill="#14243A" fill-opacity="0.13"/>
<path d="M715.837 178.303C711.243 179.679 709.505 182.999 710.389 188.477C711.118 192.362 719.735 194.68 722.927 191.767C728.837 186.372 723.314 175.811 715.837 178.303ZM722.141 186.633C721.169 190.554 716.683 192.049 714.093 189.212C710.857 185.666 713.257 180.224 717.897 180.322C721.967 180.508 723.349 182.497 722.141 186.633Z" fill="#14243A" fill-opacity="0.13"/>
<path d="M735.644 198.578C732.016 198.639 731.081 199.276 729.57 202.605C727.406 207.831 728.715 211.403 733.715 213.557C736.495 214.703 738.669 214.235 741.033 212.078C747.179 206.467 744.03 198.507 735.644 198.578ZM741.198 208.46C739.203 212.447 735.339 212.724 732.673 209.091C729.801 204.995 732.504 200.36 737.329 201.373C741.034 202.108 742.817 205.248 741.198 208.46Z" fill="#14243A" fill-opacity="0.13"/>
<path d="M755.688 218.636C751.166 218.43 746.376 224.102 747.321 228.224C748.872 233.959 755.12 236.056 759.375 232.172C763.276 228.611 763.796 224.67 760.667 221.242C759.372 219.824 757.27 218.708 755.688 218.636ZM757.962 230.861C755.737 232.459 754.283 232.053 751.801 229.334C748.025 225.197 750.394 220.434 755.672 221.467C760.497 222.48 761.822 228.205 757.962 230.861Z" fill="#14243A" fill-opacity="0.13"/>
<path d="M773.989 239.636C767.206 239.326 763.088 247.635 767.62 252.6C769.886 255.082 776.669 255.391 779.27 253.017C781.515 250.967 781.491 244.056 779.225 241.574C778.362 240.628 775.916 239.61 773.989 239.636ZM776.336 250.278C773.972 252.436 772.615 252.374 770.221 250.226C766.845 247.24 767.472 243.417 771.969 241.696C773.356 241.08 775.242 241.958 776.84 244.184C778.762 246.764 778.7 248.12 776.336 250.278Z" fill="#14243A" fill-opacity="0.13"/>
<path d="M792.331 259.73C787.927 259.416 786.154 261.034 785.002 266.42C783.295 274.045 791.938 278.291 797.966 272.788C802.695 268.472 799.006 259.921 792.331 259.73ZM797.515 267.783C797.329 271.853 795.34 273.235 791.204 272.027C784.827 270.263 786.565 261.959 793.348 262.269C796.966 262.433 797.603 263.369 797.515 267.783Z" fill="#14243A" fill-opacity="0.13"/>
<path d="M811.45 280.2C807.251 280.348 802.451 286.247 803.298 290.024C804.084 295.158 811.463 297.307 815.482 293.638C817.255 292.02 818.843 289.487 818.915 287.904C819.08 284.286 814.97 280.021 811.45 280.2ZM814.1 291.649C811.736 293.807 810.379 293.745 807.769 291.361C805.59 289.449 804.876 287.717 805.627 286.165C807.75 281.844 811.732 281.459 814.388 285.318C816.526 288.135 816.464 289.491 814.1 291.649Z" fill="#14243A" fill-opacity="0.13"/>
<path d="M624.562 112.968C620.945 112.803 616.679 116.913 616.858 120.433C616.986 125.084 623.132 129.442 626.94 127.917C633.985 124.952 632.024 113.308 624.562 112.968ZM629.777 120.343C630.167 121.72 628.826 123.811 627.074 124.977C623.214 127.633 618.199 123.327 619.664 118.522C621.161 113.039 628.807 114.294 629.777 120.343Z" fill="#14243A" fill-opacity="0.13"/>
<path d="M641.861 133.581C636.47 135.035 634.774 137.449 635.559 142.583C636.268 146.92 636.7 147.393 640.954 148.493C648.904 150.555 653.925 142.287 648.422 136.259C646.372 134.013 644.034 133.114 641.861 133.581ZM648.119 140.437C648.509 141.814 647.168 143.905 645.415 145.072C643.072 146.777 641.607 146.597 639.557 144.351C637.507 142.105 637.461 140.631 639.373 138.452C641.413 135.94 645.406 135.329 647.24 137.338C647.564 137.693 647.954 139.07 648.119 140.437Z" fill="#14243A" fill-opacity="0.13"/>
<path d="M659.859 153.773C655.157 155.032 652.402 160.797 654.586 165.088C658.033 171.476 669.117 169.376 669.447 162.14C669.653 157.618 663.981 152.828 659.859 153.773ZM667.037 162.824C666.389 167.099 661.245 168.111 657.792 164.328C655.85 162.2 655.804 160.726 657.716 158.547C661.56 153.738 667.886 156.632 667.037 162.824Z" fill="#14243A" fill-opacity="0.13"/>
<path d="M680.669 174.434C676.147 174.228 671.357 179.901 672.301 184.022C674.125 191.242 681.673 192.153 686.957 185.596C689.953 181.994 685.869 174.671 680.669 174.434ZM685.004 183.695C683.786 188.057 679.32 189.1 676.299 185.79C673.17 182.362 675.452 177.029 680.221 176.793C683.967 176.624 686.094 179.666 685.004 183.695Z" fill="#14243A" fill-opacity="0.13"/>
<path d="M699.012 194.529C691.098 194.168 688.465 207.189 695.824 209.79C703.634 212.412 710.141 203.872 704.746 197.962C703.02 196.071 700.594 194.601 699.012 194.529ZM704.227 201.903C704.956 205.788 698.912 209.138 695.634 206.496C691.924 203.382 694.011 197.359 698.867 197.694C702.937 197.88 703.703 198.481 704.227 201.903Z" fill="#14243A" fill-opacity="0.13"/>
<path d="M716.957 215.852C709.367 215.846 707.105 225.712 713.821 229.983C717.335 232.409 723.81 229.532 725.029 225.169C726.247 220.807 721.942 215.852 716.957 215.852ZM722.444 224.712C721.642 227.394 720.47 228.247 718.199 228.37C713.656 228.616 710.944 223.508 713.822 220.014C717.903 214.989 724.649 218.581 722.444 224.712Z" fill="#14243A" fill-opacity="0.13"/>
<path d="M736.775 235.9C732.253 235.694 727.463 241.367 728.408 245.488C729.959 251.223 736.207 253.32 740.463 249.436C744.364 245.875 744.883 241.934 741.754 238.506C740.459 237.088 738.358 235.972 736.775 235.9ZM741.496 244.159C740.699 249.22 736.449 250.499 732.889 246.598C730.623 244.116 730.135 242.395 731.456 240.756C733.506 238.017 738.522 237.339 740.572 239.585C741.327 240.413 741.687 242.468 741.496 244.159Z" fill="#14243A" fill-opacity="0.13"/>
<path d="M755.117 255.995C750.821 255.8 747.106 260.275 747.686 264.946C747.916 267.336 748.6 269.746 749.031 270.218C750.434 271.755 758.82 271.684 760.593 270.066C764.967 266.074 761.222 256.274 755.117 255.995ZM760.332 263.37C761.061 267.255 755.018 270.605 751.847 268.081C748.138 264.967 749.151 260.141 753.735 258.991C757.522 257.918 759.721 259.377 760.332 263.37Z" fill="#14243A" fill-opacity="0.13"/>
<path d="M773.418 276.994C768.67 276.778 766.532 278.946 766.285 284.373C766.027 290.025 767.861 292.035 772.846 292.035C783.838 291.97 784.389 277.381 773.418 276.994ZM778.494 284.929C778.334 290.926 772.933 292.606 769.65 287.585C767.092 284.07 769.441 279.759 773.865 279.62C777.837 279.462 778.808 280.525 778.494 284.929Z" fill="#14243A" fill-opacity="0.13"/>
<path d="M792.881 297.366C788.359 297.16 783.569 302.832 784.514 306.954C786.065 312.689 792.314 314.786 796.569 310.902C800.47 307.341 800.989 303.4 797.86 299.972C796.565 298.554 794.464 297.438 792.881 297.366ZM795.156 309.591C792.931 311.189 791.477 310.783 788.995 308.064C785.219 303.927 787.588 299.164 792.865 300.197C797.69 301.21 799.016 306.935 795.156 309.591Z" fill="#14243A" fill-opacity="0.13"/>
<path d="M605.649 130.231C602.032 130.066 597.766 134.177 597.946 137.697C597.981 139.397 599.559 142.075 601.413 143.632C607.841 149.25 617.21 140.047 611.384 133.664C609.765 131.891 607.232 130.303 605.649 130.231ZM610.371 138.49C609.712 142.991 605.324 144.83 602.411 141.638C598.958 137.856 600.433 132.825 604.75 132.569C608.948 132.421 610.89 134.548 610.371 138.49Z" fill="#14243A" fill-opacity="0.13"/>
<path d="M623.991 150.326C622.409 150.254 620.214 151.173 618.796 152.468C615.368 155.597 615.527 159.569 619.087 163.47C622.972 167.725 629.385 166.205 631.451 160.635C632.767 156.617 628.513 150.532 623.991 150.326ZM626.888 161.333C622.751 165.11 617.988 162.74 619.021 157.463C620.034 152.638 625.759 151.313 628.415 155.172C630.013 157.398 629.607 158.852 626.888 161.333Z" fill="#14243A" fill-opacity="0.13"/>
<path d="M753.386 293.979C748.802 295.13 746.109 299.538 747.26 304.122C749.18 311.687 762.387 310.249 762.748 302.336C762.954 297.814 757.4 292.916 753.386 293.979ZM759.767 303.106C758.333 307.233 752.403 308.095 750.199 304.256C748.396 301.568 750.39 297.581 754.424 296.066C757.651 294.853 761.073 299.314 759.767 303.106Z" fill="#14243A" fill-opacity="0.13"/>
<path d="M773.968 314.63C769.446 314.424 764.656 320.096 765.601 324.218C767.152 329.953 773.401 332.05 777.656 328.166C781.557 324.605 782.076 320.664 778.947 317.236C777.653 315.817 775.551 314.702 773.968 314.63ZM778.69 322.888C778.011 327.842 772.276 329.393 769.404 325.297C766.521 321.427 768.526 317.214 773.295 316.978C777.267 316.819 779.209 318.947 778.69 322.888Z" fill="#14243A" fill-opacity="0.13"/>
<path d="M642.369 177.107C631.08 173.76 631.08 173.76 579.425 220.911C528.597 267.307 528.597 267.307 529.438 278.674C529.761 284.013 530.84 285.195 573.891 332.358C605.289 366.756 619.023 381.089 622.137 382.364C624.357 383.371 628.761 383.685 631.957 383.151C637.327 382.15 640.863 379.139 685.986 338.601C739.501 290.402 738.181 292.041 735.592 279.235C734.601 273.639 732.238 270.812 691.345 226.013C650.452 181.214 647.852 178.603 642.369 177.107ZM731.496 282.107C732.322 291.321 728.864 295.128 680.678 338.246L635.673 378.676L628.33 378.228L620.976 378.006L579.837 333.649C535.892 286.218 532.793 282.112 534.336 273.119C535.133 268.058 536.444 266.645 581.598 225.428C608.194 201.151 629.666 182.418 632.086 181.509C640.627 178.047 641.932 179.239 688.446 229.959C729.986 275.468 731.163 276.994 731.496 282.107Z" fill="#14243A" fill-opacity="0.13"/>
<path d="M642.243 199.757C641.339 199.716 620.211 218.351 595.27 241.117L549.88 282.55L557.571 290.264L565.155 297.86L610.663 256.32L656.172 214.779L650.053 207.363C646.621 203.129 643.147 199.798 642.243 199.757ZM650.653 216.567C649.44 218.324 629.453 236.785 606.188 257.588L564.009 295.655L558.645 289.067L553.389 282.597L596.21 242.859C619.861 221.054 640.064 202.83 641.215 202.429C642.602 201.813 644.791 203.498 648.008 207.497C651.969 212.548 652.359 213.926 650.653 216.567Z" fill="#14243A" fill-opacity="0.13"/>
<path d="M659.434 220.253C658.391 220.772 650.955 227.343 642.906 234.906L628.573 248.64L656.595 280.052L684.628 311.237L689.217 307.481C701.341 297.498 709.969 289.622 713.675 285.373L717.509 280.789L689.564 250.174C667.553 226.061 661.048 219.647 659.434 220.253ZM692.271 257.888L714.282 282.002L699.506 295.489L684.731 308.976L657.757 279.425L630.782 249.874L645.44 236.495L660.215 223.008L664.248 226.477C666.319 228.27 668.585 230.753 669.104 231.796C669.849 232.849 680.186 244.649 692.271 257.888Z" fill="#14243A" fill-opacity="0.13"/>
<path d="M622.298 254.585C621.384 254.77 614.225 260.221 606.346 266.546C588.333 281.471 587.573 283.249 595.233 291.641C598.362 295.069 602.082 297.958 603.665 298.03C607.509 298.205 634.932 273.173 635.107 269.329C635.252 266.164 624.698 254.128 622.298 254.585ZM618.523 282.734L603.747 296.221L597.813 289.72L591.879 283.219L606.654 269.732L621.43 256.244L627.364 262.746L633.298 269.247L618.523 282.734Z" fill="#14243A" fill-opacity="0.13"/>
<path d="M664.326 301.814C662.399 301.84 656.52 306.556 646.57 316.072L631.645 330.345L638.659 338.028L645.672 345.712L661.835 331.608C673.989 320.947 677.803 316.816 677.659 314.997C676.822 310.994 667.394 301.614 664.326 301.814ZM661.681 330.015L646.905 343.502L640.971 337.001L635.037 330.5L649.812 317.013L664.588 303.526L670.522 310.027L676.456 316.528L661.681 330.015Z" fill="#14243A" fill-opacity="0.13"/>
<path d="M642.114 279.618C640.963 280.018 633.763 286.374 626.07 293.613L612.327 306.808L618.77 314.578L625.213 322.349L640.61 307.644L656.008 292.939L650.104 285.759C645.917 280.697 643.62 278.893 642.114 279.618Z" fill="#14243A" fill-opacity="0.13"/>
<path d="M586.301 288.742C584.739 288.218 581.815 290.237 576.712 295.329L569.47 302.589L597.493 334L625.525 365.185L633.681 357.74C640.064 351.914 641.524 349.715 640.82 347.757C639.295 343.949 589.102 289.436 586.301 288.742ZM632.721 356.45L625.628 362.924L598.654 333.373L571.68 303.822L578.772 297.348L585.864 290.875L612.839 320.426L639.813 349.977L632.721 356.45Z" fill="#14243A" fill-opacity="0.13"/>
<path d="M589.342 147.501C585.354 145.506 579.151 149.868 578.935 154.616C578.739 158.912 583.214 162.628 587.767 162.156C592.212 161.566 594.618 158.503 594.392 153.508C594.105 149.87 593.997 149.752 589.342 147.501ZM591.021 157.886C589.936 159.309 587.516 160.219 585.825 160.028C579.407 159.169 579.819 150.125 586.289 149.854C590.605 149.597 593.662 154.608 591.021 157.886Z" fill="#14243A" fill-opacity="0.13"/>
<path d="M605.079 167.59C601.462 167.425 597.196 171.535 597.376 175.055C597.411 176.756 598.988 179.434 600.951 181.109C605.093 184.697 612.333 182.421 613.023 177.241C613.65 173.418 608.923 167.765 605.079 167.59ZM608.654 178.628C606.624 180.915 605.129 181.413 602.919 180.179C599.061 177.851 598.614 175.225 601.924 172.204C605.352 169.075 607.386 169.168 609.719 172.673C610.885 174.425 610.566 176.45 608.654 178.628Z" fill="#14243A" fill-opacity="0.13"/>
<path d="M734.247 311.233C728.512 312.784 726.415 319.032 730.299 323.288C733.86 327.188 737.801 327.708 741.229 324.579C744.657 321.45 744.498 317.478 740.937 313.577C738.995 311.449 736.765 310.668 734.247 311.233ZM740.854 320.37C739.42 324.496 733.49 325.359 731.286 321.52C729.483 318.832 731.477 314.845 735.511 313.329C738.738 312.117 742.16 316.578 740.854 320.37Z" fill="#14243A" fill-opacity="0.13"/>
<path d="M755.863 331.59C752.61 330.875 749.234 332.874 747.368 336.527C745.888 339.179 746.376 340.9 749.289 344.092C752.526 347.638 753.754 348.034 757.012 346.143C759.098 345.105 761.128 342.819 761.653 341.257C762.594 338.014 759.115 332.305 755.863 331.59ZM759.767 340.378C759.119 344.653 753.975 345.665 750.522 341.882C748.58 339.754 748.534 338.28 750.446 336.101C754.29 331.292 760.616 334.186 759.767 340.378Z" fill="#14243A" fill-opacity="0.13"/>
<path d="M569.771 164.281C566.087 163.094 560.208 167.81 560.022 171.88C559.95 173.463 560.869 175.657 562.164 177.075C563.459 178.494 565.561 179.609 567.143 179.681C571.439 179.877 576.563 174.333 575.608 170.438C574.437 166.306 573.682 165.479 569.771 164.281ZM573.182 173.953C571.82 176.496 567.215 178.099 564.672 176.737C561.579 175.01 562.319 168.699 565.675 167.153C569.838 165.304 574.94 170.181 573.182 173.953Z" fill="#14243A" fill-opacity="0.13"/>
<path d="M586.726 184.992C576.865 185.109 576.765 199.718 586.488 200.162C591.354 200.27 593.492 198.102 593.739 192.675C593.997 187.023 592.163 185.013 586.726 184.992ZM590.096 195.568C586.37 200.269 581.144 198.105 581.53 192.119C581.654 189.406 582.491 188.424 585.128 187.751C590.056 186.503 593.328 191.75 590.096 195.568Z" fill="#14243A" fill-opacity="0.13"/>
<path d="M717.822 328.61C712.621 328.373 711.331 329.333 709.532 334.009C708.226 337.802 712.825 343.789 717.121 343.985C721.417 344.18 725.133 339.705 724.552 335.034C723.788 329.448 723.248 328.857 717.822 328.61ZM721.942 337.634C720.507 341.76 714.577 342.622 712.373 338.784C710.57 336.096 712.564 332.108 716.598 330.593C719.826 329.381 723.247 333.842 721.942 337.634Z" fill="#14243A" fill-opacity="0.13"/>
<path d="M738.522 349.152C735.979 347.79 734.257 348.278 731.066 351.191C727.52 354.428 727.124 355.656 728.799 358.678C732.451 365.528 738.212 365.904 742.473 359.414C744.909 355.674 743.394 351.639 738.522 349.152ZM740.469 358.643C739.677 361.099 738.742 361.736 735.802 361.602C729.019 361.293 728.774 351.766 735.588 351.397C739.442 351.346 741.569 354.388 740.469 358.643Z" fill="#14243A" fill-opacity="0.13"/>
<path d="M550.859 181.545C547.175 180.357 541.295 185.074 541.11 189.144C541.038 190.726 541.957 192.921 543.252 194.339C544.547 195.758 546.648 196.873 548.231 196.945C552.527 197.141 557.651 191.597 556.696 187.702C555.524 183.57 554.769 182.743 550.859 181.545ZM552.399 192.49C550.035 194.648 548.678 194.586 546.068 192.202C543.89 190.29 543.176 188.558 543.926 187.006C546.049 182.685 550.031 182.3 552.688 186.159C554.825 188.976 554.763 190.332 552.399 192.49Z" fill="#14243A" fill-opacity="0.13"/>
<path d="M568.395 201.942C566.478 201.741 563.831 202.64 562.649 203.719C561.467 204.798 560.331 207.352 560.357 209.279C560.048 216.062 568.356 220.179 573.321 215.648C575.921 213.274 576.112 206.599 573.631 203.88C572.767 202.934 570.322 201.917 568.395 201.942ZM570.742 212.585C568.496 214.635 567.021 214.681 564.842 212.769C561.456 210.009 561.837 206.628 566.01 204.552C567.988 203.396 569.432 204.028 571.246 206.49C573.168 209.07 573.106 210.427 570.742 212.585Z" fill="#14243A" fill-opacity="0.13"/>
<path d="M699.145 345.658C689.809 344.213 687.587 358.159 696.646 360.724C701.343 362.071 706.425 357.432 705.64 352.298C704.983 346.83 704.659 346.476 699.145 345.658ZM703.137 355.016C702.119 357.462 701.066 358.207 698.352 358.083C694.283 357.898 694.39 358.016 693.07 354.67C692.053 352.132 696.016 347.215 698.837 347.456C701.894 347.483 704.304 351.784 703.137 355.016Z" fill="#14243A" fill-opacity="0.13"/>
<path d="M719.06 366.051C714.107 365.372 710.838 367.489 709.846 371.862C708.962 376.353 712.255 381.147 716.551 381.343C719.49 381.477 723.833 378.163 724.547 374.911C725.498 371.442 722.431 366.658 719.06 366.051ZM721.783 375.917C718.329 382.104 709.126 377.72 712.364 371.297C714.24 367.417 718.115 366.914 720.92 369.987C722.646 371.879 723.006 373.934 721.783 375.917Z" fill="#14243A" fill-opacity="0.13"/>
<path d="M531.181 198.207C526.659 198.001 521.869 203.673 522.814 207.795C524.365 213.53 530.614 215.627 534.869 211.743C538.77 208.182 539.289 204.241 536.16 200.813C534.865 199.394 532.764 198.279 531.181 198.207ZM533.487 209.754C531.123 211.912 529.766 211.85 527.156 209.465C524.978 207.553 524.264 205.821 525.014 204.27C527.137 199.948 531.119 199.563 533.776 203.423C535.913 206.239 535.851 207.596 533.487 209.754Z" fill="#14243A" fill-opacity="0.13"/>
<path d="M549.482 219.206C542.699 218.897 538.581 227.205 543.113 232.17C545.379 234.652 552.162 234.962 554.762 232.588C557.008 230.538 556.984 223.626 554.718 221.144C553.855 220.198 551.409 219.18 549.482 219.206ZM551.829 229.848C549.465 232.006 548.108 231.945 545.714 229.796C542.338 226.81 542.965 222.987 547.462 221.266C548.849 220.65 550.735 221.529 552.333 223.754C554.255 226.334 554.193 227.691 551.829 229.848Z" fill="#14243A" fill-opacity="0.13"/>
<path d="M679.457 362.546C671.07 362.617 669.024 372.719 676.526 377.139C680.611 379.478 686.546 376.01 687.01 370.82C687.231 368.451 686.568 365.589 685.597 364.525C684.626 363.461 681.836 362.541 679.457 362.546ZM682.59 373.338C679.604 376.713 675.781 376.086 674.05 371.815C673.14 369.395 677.103 364.478 680.042 364.612C683.66 364.777 685.34 370.178 682.59 373.338Z" fill="#14243A" fill-opacity="0.13"/>
<path d="M700.265 383.206C696.581 382.019 690.702 386.735 690.516 390.805C690.444 392.388 691.364 394.582 692.658 396.001C693.953 397.419 696.055 398.534 697.637 398.607C701.933 398.802 707.057 393.258 706.102 389.363C704.931 385.232 704.176 384.404 700.265 383.206ZM702.859 393.407C700.52 397.492 694.554 396.654 693.414 391.844C692.546 388.519 695.327 384.68 698.266 384.814C701.776 384.861 704.586 390.314 702.859 393.407Z" fill="#14243A" fill-opacity="0.13"/>
<path d="M512.268 215.47C507.746 215.264 502.956 220.936 503.901 225.058C505.452 230.793 511.7 232.89 515.956 229.006C519.856 225.445 520.376 221.504 517.247 218.076C515.952 216.658 513.851 215.542 512.268 215.47ZM514.543 227.695C512.317 229.293 510.863 228.887 508.382 226.168C504.605 222.031 506.975 217.268 512.252 218.301C517.077 219.314 518.402 225.039 514.543 227.695Z" fill="#14243A" fill-opacity="0.13"/>
<path d="M530.61 235.565C526.766 235.389 522.609 239.618 522.531 243.806C522.314 248.554 524.483 250.692 529.909 250.94C535.336 251.187 537.689 249.255 537.906 244.507C538.21 240.329 534.454 235.74 530.61 235.565ZM535.825 242.939C536.554 246.824 530.51 250.174 527.232 247.532C523.523 244.418 525.61 238.395 530.466 238.73C534.536 238.916 535.301 239.517 535.825 242.939Z" fill="#14243A" fill-opacity="0.13"/>
<path d="M661.124 379.496C659.208 379.295 656.679 380.086 655.497 381.165C652.897 383.539 652.706 390.214 655.188 392.933C657.453 395.415 663.45 395.575 666.169 393.093C667.351 392.014 668.487 389.461 668.461 387.534C668.662 385.617 667.763 382.97 666.684 381.788C665.605 380.606 663.051 379.47 661.124 379.496ZM664.15 390.169C660.044 393.267 653.965 389.931 656.077 385.836C658.072 381.849 661.946 381.346 664.86 384.537C667.341 387.256 667.192 388.042 664.15 390.169Z" fill="#14243A" fill-opacity="0.13"/>
<path d="M678.188 400.325C673.851 401.034 673.378 401.466 672.277 405.72C670.216 413.67 678.483 418.691 684.512 413.188C690.54 407.686 686.292 398.996 678.188 400.325ZM684.075 410.336C681.855 414.313 679.239 414.534 676.002 410.988C673.197 407.915 674.051 404.102 678.085 402.586C681.666 401.05 686.049 406.801 684.075 410.336Z" fill="#14243A" fill-opacity="0.13"/>
<path d="M493.011 232.832C491.31 232.867 488.633 234.445 486.957 236.407C484.326 239.459 484.403 240.256 488.287 244.511C492.171 248.767 492.957 248.916 496.236 246.573C500.687 243.377 501.571 238.886 498.334 235.34C497.039 233.922 494.604 232.678 493.011 232.832ZM497.691 241.995C496.473 246.357 492.007 247.4 488.986 244.09C485.857 240.662 488.139 235.328 492.908 235.093C496.654 234.924 498.781 237.966 497.691 241.995Z" fill="#14243A" fill-opacity="0.13"/>
<path d="M511.697 252.828C507.401 252.632 503.686 257.108 504.266 261.779C504.497 264.168 505.18 266.578 505.611 267.051C507.014 268.588 515.4 268.517 517.173 266.899C521.547 262.906 517.802 253.106 511.697 252.828ZM516.558 260.527C516.248 267.31 507.821 268.285 506.645 261.774C505.818 257.545 507.375 255.69 511.445 255.875C515.849 256.189 516.722 256.909 516.558 260.527Z" fill="#14243A" fill-opacity="0.13"/>
<path d="M642.213 396.76C640.296 396.56 637.768 397.351 636.586 398.43C634.103 400.695 633.794 407.478 636.168 410.079C638.218 412.325 645.129 412.3 647.612 410.034C650.094 407.768 650.254 401.772 647.772 399.053C646.693 397.871 644.14 396.735 642.213 396.76ZM644.39 408.641C641.789 411.015 641.003 410.866 638.876 407.823C636.847 405.125 636.811 403.424 638.723 401.246C640.044 399.607 642.13 398.569 643.476 398.857C647.053 399.926 647.7 405.62 644.39 408.641Z" fill="#14243A" fill-opacity="0.13"/>
<path d="M659.501 417.599C655.852 418.113 654.562 419.074 653.534 421.746C650.913 429.556 659.452 436.063 665.362 430.668C671.745 424.842 667.831 416.28 659.501 417.599ZM665.347 428.515C662.51 431.104 658.795 430.595 656.786 427.445C654.13 423.585 657.06 418.961 661.659 419.964C665.59 420.709 667.83 426.249 665.347 428.515Z" fill="#14243A" fill-opacity="0.13"/>
<path d="M473.991 249.976C466.606 250.433 464.519 261.439 471.383 264.924C475.145 266.908 481.348 262.546 481.564 257.798C481.729 254.181 477.619 249.915 473.991 249.976ZM478.66 259.365C477.699 263.06 472.339 263.835 469.318 260.525C466.944 257.925 469.797 252.504 473.995 252.355C477.742 252.186 479.869 255.229 478.66 259.365Z" fill="#14243A" fill-opacity="0.13"/>
<path d="M492.785 270.092C491.202 270.02 489.008 270.94 487.589 272.234C484.162 275.363 484.32 279.336 487.881 283.236C491.765 287.492 498.178 285.972 500.245 280.402C501.561 276.383 497.307 270.298 492.785 270.092ZM495.682 281.1C491.19 285.2 486.016 281.905 487.974 276.217C489.655 271.649 494.553 271.079 497.317 275.057C498.807 277.164 498.4 278.618 495.682 281.1Z" fill="#14243A" fill-opacity="0.13"/>
<path d="M509.966 290.813C505.382 291.964 502.689 296.373 503.84 300.956C505.761 308.521 518.967 307.084 519.328 299.17C519.534 294.648 513.98 289.75 509.966 290.813ZM516.347 299.941C514.913 304.067 508.983 304.929 506.779 301.09C504.976 298.403 506.97 294.415 511.004 292.9C514.231 291.688 517.653 296.148 516.347 299.941Z" fill="#14243A" fill-opacity="0.13"/>
<path d="M531.238 311.269C525.863 309.891 520.214 316.997 522.711 321.869C525.316 326.859 530.573 328.345 534.237 325C536.01 323.381 537.598 320.848 537.67 319.265C537.804 316.326 534.49 311.983 531.238 311.269ZM535.26 319.949C534.612 324.224 529.468 325.236 526.015 321.453C523.102 318.261 525.333 314.058 529.876 313.812C533.848 313.653 535.79 315.781 535.26 319.949Z" fill="#14243A" fill-opacity="0.13"/>
<path d="M548.891 331.558C540.978 331.197 538.345 344.219 545.703 346.82C553.514 349.441 560.021 340.902 554.626 334.992C552.899 333.1 550.474 331.63 548.891 331.558ZM554.106 338.933C554.497 340.31 553.155 342.401 551.403 343.568C547.543 346.224 542.528 341.917 543.993 337.112C545.49 331.63 553.136 332.885 554.106 338.933Z" fill="#14243A" fill-opacity="0.13"/>
<path d="M566.191 352.172C560.8 353.625 559.104 356.04 559.89 361.174C560.598 365.511 561.03 365.984 565.284 367.084C573.234 369.146 578.255 360.878 572.752 354.85C570.702 352.604 568.364 351.704 566.191 352.172ZM570.131 362.66C567.176 365.358 566.153 365.424 563.887 362.942C561.837 360.696 561.791 359.221 563.703 357.043C566.226 353.872 570.188 353.94 572.295 357.434C573.148 358.606 572.377 360.61 570.131 362.66Z" fill="#14243A" fill-opacity="0.13"/>
<path d="M587.344 372.735C581.851 371.465 576.963 376.793 578.396 382.636C580.209 390.082 593.426 388.419 593.777 380.731C593.911 377.792 590.597 373.449 587.344 372.735ZM591.367 381.414C590.719 385.69 585.575 386.701 582.122 382.919C579.209 379.727 581.439 375.524 585.982 375.278C589.954 375.119 591.896 377.247 591.367 381.414Z" fill="#14243A" fill-opacity="0.13"/>
<path d="M604.998 393.024C598.893 392.746 594.272 402.165 598.265 406.538C601.07 409.611 608.917 408.949 610.89 405.414C611.877 403.647 612.551 401.298 612.376 400.158C611.96 396.853 607.937 393.158 604.998 393.024ZM609.334 402.285C608.115 406.647 603.65 407.69 600.629 404.38C597.5 400.952 599.782 395.619 604.551 395.383C608.297 395.214 610.424 398.256 609.334 402.285Z" fill="#14243A" fill-opacity="0.13"/>
<path d="M622.297 413.638C616.907 415.091 615.211 417.506 615.996 422.64C616.705 426.977 617.136 427.45 621.391 428.55C629.34 430.612 634.362 422.344 628.859 416.316C626.809 414.07 624.471 413.171 622.297 413.638ZM628.555 420.494C628.946 421.871 627.604 423.962 625.852 425.128C621.874 427.893 616.212 422.876 619.1 419.156C622.847 414.003 627.575 414.671 628.555 420.494Z" fill="#14243A" fill-opacity="0.13"/>
<path d="M640.707 434.755C635.574 435.54 633.148 439.055 634.504 444.101C635.644 448.911 640.417 451.055 644.719 448.645C652.731 444.366 649.608 433.348 640.707 434.755ZM647.073 441.729C647.612 447.304 641.394 449.513 638.198 445.063C635.316 441.193 637.321 436.979 642.089 436.744C645.835 436.575 646.601 437.176 647.073 441.729Z" fill="#14243A" fill-opacity="0.13"/>
<path d="M458.017 267.374C455.474 266.012 453.644 266.382 451.162 268.647C447.143 272.316 446.742 276.149 449.979 279.695C453.108 283.123 457.661 282.651 461.13 278.618C464.47 274.918 462.996 269.98 458.017 267.374ZM460.082 276.757C456.509 283.052 447.425 278.559 450.663 272.137C452.046 269.141 457.385 268.818 459.974 271.655C461.053 272.837 461.058 275.216 460.082 276.757Z" fill="#14243A" fill-opacity="0.13"/>
<path d="M473.873 287.355C472.29 287.283 470.096 288.202 468.678 289.497C465.25 292.626 465.408 296.598 468.969 300.499C472.853 304.754 479.267 303.234 481.333 297.664C482.649 293.646 478.395 287.561 473.873 287.355ZM476.77 298.362C474.051 300.844 472.566 301.116 470.603 299.441C466.894 296.326 467.907 291.501 472.609 290.243C478.451 288.81 481.262 294.262 476.77 298.362Z" fill="#14243A" fill-opacity="0.13"/>
<path d="M490.828 308.066C485.093 309.617 482.995 315.866 486.88 320.121C490.44 324.022 494.382 324.541 497.809 321.412C501.237 318.283 501.079 314.311 497.518 310.41C495.576 308.283 493.346 307.501 490.828 308.066ZM497.435 317.204C496.001 321.33 490.071 322.192 487.867 318.353C486.063 315.666 488.058 311.678 492.092 310.163C495.319 308.951 498.741 313.411 497.435 317.204Z" fill="#14243A" fill-opacity="0.13"/>
<path d="M509.925 328.988C504.221 329.861 501.831 335.077 505.027 339.527C508.115 343.86 512.606 344.744 516.034 341.615C521.589 336.544 517.33 328.08 509.925 328.988ZM515.962 338.213C515.171 340.669 514.235 341.306 511.296 341.173C504.513 340.863 504.267 331.336 511.081 330.967C514.935 330.916 517.062 333.959 515.962 338.213Z" fill="#14243A" fill-opacity="0.13"/>
<path d="M529.979 348.821C528.396 348.749 526.202 349.669 524.783 350.963C521.355 354.092 521.514 358.065 525.075 361.965C528.959 366.221 535.372 364.701 537.439 359.131C538.755 355.112 534.501 349.027 529.979 348.821ZM535.194 356.196C535.584 357.573 534.242 359.665 532.49 360.831C528.631 363.487 523.616 359.18 525.081 354.376C526.577 348.893 534.223 350.148 535.194 356.196Z" fill="#14243A" fill-opacity="0.13"/>
<path d="M546.935 369.533C541.2 371.084 539.103 377.332 542.987 381.587C546.547 385.488 550.489 386.008 553.917 382.879C557.345 379.75 557.186 375.777 553.625 371.877C551.683 369.749 549.453 368.968 546.935 369.533ZM553.542 378.67C552.108 382.796 546.178 383.659 543.974 379.82C542.17 377.132 544.165 373.145 548.199 371.629C551.426 370.417 554.848 374.878 553.542 378.67Z" fill="#14243A" fill-opacity="0.13"/>
<path d="M565.374 389.971C560.06 392.221 558.143 397.005 561.133 400.993C564.221 405.326 568.712 406.21 572.14 403.081C575.686 399.844 575.635 395.99 571.967 391.971C569.701 389.489 567.913 388.954 565.374 389.971ZM572.454 398.677C571.806 402.953 566.662 403.964 563.209 400.182C560.296 396.99 562.527 392.787 567.07 392.541C571.042 392.382 572.984 394.51 572.454 398.677Z" fill="#14243A" fill-opacity="0.13"/>
<path d="M586.086 410.288C584.503 410.216 582.309 411.135 580.89 412.43C577.462 415.559 577.621 419.531 581.182 423.432C584.958 427.569 590.102 426.557 592.847 421.018C594.456 418.033 594.086 416.204 591.82 413.721C590.202 411.948 587.668 410.36 586.086 410.288ZM591.301 417.663C591.691 419.04 590.349 421.131 588.597 422.297C584.737 424.954 579.723 420.647 581.188 415.842C582.684 410.359 590.33 411.614 591.301 417.663Z" fill="#14243A" fill-opacity="0.13"/>
<path d="M602.342 431.42C596.822 433.208 595.378 437.56 598.897 442.365C601.985 446.697 606.476 447.582 609.904 444.453C615.932 438.95 610.045 428.939 602.342 431.42ZM609.643 437.757C610.033 439.134 608.692 441.226 606.939 442.392C602.962 445.156 597.299 440.14 600.188 436.42C603.935 431.266 608.662 431.935 609.643 437.757Z" fill="#14243A" fill-opacity="0.13"/>
<path d="M621.383 451.093C615.648 452.644 613.551 458.893 617.435 463.148C620.995 467.049 624.937 467.568 628.365 464.439C631.793 461.31 631.634 457.338 628.073 453.437C626.131 451.31 623.901 450.528 621.383 451.093ZM628.56 460.143C627.912 464.419 622.769 465.43 619.316 461.648C617.374 459.52 617.328 458.045 619.239 455.867C623.084 451.058 629.409 453.951 628.56 460.143Z" fill="#14243A" fill-opacity="0.13"/>
</svg>
